PathFileType	4	(X/Y/Z)	RBDS017\RBDS017runT45.trc
DataRate	CameraRate	NumFrames	NumMarkers	Units	OrigDataRate	OrigDataStartFrame	OrigNumFrames
150.000000	150.000000	4	33	mm	150.000000	2250	4500
Frame#	Time	L.ASIS			L.Heel.Bottom			L.Heel.Lateral			L.Heel.Top			L.Iliac.Crest			L.MT1			L.MT5			L.PSIS			L.Shank.Bottom.Lateral			L.Shank.Bottom.Medial			L.Shank.Top.Lateral			L.Shank.Top.Medial			L.Thigh.Bottom.Lateral			L.Thigh.Bottom.Medial			L.Thigh.Top.Lateral			L.Thigh.Top.Medial			R.ASIS			R.ASY			R.Heel.Bottom			R.Heel.Lateral			R.Heel.Top			R.Iliac.Crest			R.MT1			R.MT5			R.PSIS			R.Shank.Bottom.Lateral			R.Shank.Bottom.Medial			R.Shank.Top.Lateral			R.Shank.Top.Medial			R.Thigh.Bottom.Lateral			R.Thigh.Bottom.Medial			R.Thigh.Top.Lateral			R.Thigh.Top.Medial			
		X1	Y1	Z1	X2	Y2	Z2	X3	Y3	Z3	X4	Y4	Z4	X5	Y5	Z5	X6	Y6	Z6	X7	Y7	Z7	X8	Y8	Z8	X9	Y9	Z9	X10	Y10	Z10	X11	Y11	Z11	X12	Y12	Z12	X13	Y13	Z13	X14	Y14	Z14	X15	Y15	Z15	X16	Y16	Z16	X17	Y17	Z17	X18	Y18	Z18	X19	Y19	Z19	X20	Y20	Z20	X21	Y21	Z21	X22	Y22	Z22	X23	Y23	Z23	X24	Y24	Z24	X25	Y25	Z25	X26	Y26	Z26	X27	Y27	Z27	X28	Y28	Z28	X29	Y29	Z29	X30	Y30	Z30	X31	Y31	Z31	X32	Y32	Z32	X33	Y33	Z33	

2251	15	2208.057031935318	996.4005666552384	885.5514972249722	1649.700274390675	678.6680994047115	956.4831399904094	1650.481331286726	659.5385828493424	915.1865801272156	1686.450669074927	652.7695307563971	947.3981835441518	2172.063348413315	1101.341421068604	850.0603826051437	1573.644388571987	460.9941219366696	957.9583714540662	1560.180974035167	522.5409099573169	862.5120137102824	2033.835918233994	1073.690451327867	958.0062374588534	1761.326007166319	574.8915037739706	867.0383747859539	1773.60301790444	611.0538006799816	907.1226319233657	1839.670521211574	569.6135002776666	848.5730107148547	1852.052771389958	605.0393611085101	886.5151109060381	2106.468724821442	616.1762693380374	800.7837116787603	2049.244534365309	607.9239790625719	844.14860078349	2092.341309931703	725.4149715866722	806.5342106527254	2039.711227139465	718.1455633551692	849.6684893634745	2189.105165043244	1003.626649732239	1160.328261257647	2305.899748183062	73.13545686107769	1094.456107229719	2112.939373134848	32.12673747951507	1033.101124215548	2127.003136910159	52.30182401449601	1077.874810770477	2126.514588333271	77.83850072523254	1036.427769968983	2137.863425414423	1084.568658564965	1200.284300823813	2341.100165005082	45.24435786786266	1056.801873226406	2274.163494667798	35.986942146782	1156.857043965347	2025.446537523878	1071.875935250927	1058.205331908456	2196.79756331275	178.3657100971458	1111.297686263754	2161.987080229023	192.17302308621	1076.032010258841	2205.934655731464	260.4467217462903	1131.275151788229	2167.352606949951	270.7698364987397	1095.429447331781	2224.420329360865	631.9165325562018	1171.922536537052	2174.134666275422	607.7157822339542	1125.068645116786	2165.450329353453	723.9320280970238	1183.735209189271	2116.700386871916	700.3634004642573	1140.74838102973	
2252	15.00666666666667	2205.208670007947	990.49451987682	886.3284772591519	1666.745471493201	675.7486652040866	955.5758294557977	1668.002727595167	656.096273324285	914.4346709105839	1703.877152735774	650.2602345544789	947.2449645791469	2170.081423306966	1094.856726616857	850.2990771049045	1593.622229937508	457.2459261725464	959.7750786262515	1579.975467356296	517.1929671788988	863.3699976193851	2030.964416083702	1070.128315241393	959.1968960841482	1780.184481353755	571.7150373964588	867.2574858370665	1792.727991695062	608.0012393423323	907.1677556316449	1858.468187488509	566.0030791624761	848.6137696860609	1871.213191734145	601.5102479093271	886.4608853510712	2118.997372462569	613.0289362068266	800.628898674458	2062.201653294847	602.1545216167763	843.8312239225467	2100.282852137032	721.490062746333	806.7302448748291	2047.89628495571	711.8346479934423	849.5332242994514	2186.572051514383	999.2608769082186	1162.103384980424	2275.984496424394	72.75585478679379	1092.917228339824	2082.716052886493	32.31757896493316	1032.557204313759	2097.043539768064	53.28965966249829	1076.978351654609	2096.823866531126	78.06791850611124	1035.014833748112	2135.544776780204	1078.204325527955	1200.76858180649	2311.122929729788	44.40402484160158	1056.004951897071	2243.868254680568	37.02787941242747	1156.317432716307	2023.232292142764	1069.047383809107	1058.79256687125	2173.26166835291	177.9949432927955	1109.669415145609	2138.360831800821	193.6275372443417	1075.107659336102	2186.657499757894	259.5147038596305	1130.154843596083	2147.798868518345	271.8812154434497	1094.971858281656	2218.12633631542	627.6726668862774	1171.972169025968	2167.641804166202	604.3664556389642	1124.835653502648	2160.205480922542	720.4013872919579	1184.184992564271	2111.239073829883	697.5607913936442	1141.030204045771	
2253	15.01333333333333	2202.157416798422	985.4507632497639	886.7518908130779	1682.82036335084	671.0706827905135	954.4622549155656	1684.723498798192	650.8801546735415	913.4700149389727	1720.535359338887	646.317424662281	946.9203699831746	2167.04411457017	1089.513940445649	850.3890713689003	1614.487432318889	451.2719574538814	961.6659642485977	1600.152730514858	509.3459980911357	864.2649155213626	2028.174974242442	1067.475039125248	960.4967280090218	1798.994998110326	567.6051472189258	867.4882535936827	1811.445610910753	604.2032682067196	907.1444702644097	1877.252367180408	562.0682903539232	848.7489460121553	1890.010289380452	597.8719733544914	886.4084950970207	2132.103877590415	611.3854591297813	800.8039415933811	2075.8090162573	597.7995227544201	843.7829638614205	2108.557012918096	718.8113695535014	807.1814637034395	2056.476656697389	706.6686737673773	849.5715499243206	2184.139556113144	995.5955403032954	1163.976066394637	2245.625415843827	72.8964551351628	1092.138237146332	2052.377278290101	32.58571826284227	1032.380799739161	2066.850542406862	54.1300141274742	1076.575478294554	2066.714724862628	78.36291566599074	1034.281984630845	2132.842035996669	1072.72063850654	1201.292079113896	2280.728820256378	44.38667416957308	1055.80170544511	2213.386674193063	38.06665393503151	1156.174362692439	2021.1694490061	1066.986498536747	1059.444291883761	2148.654873737625	177.9435146197276	1108.724216829735	2113.888378460473	195.2192847353612	1074.683286232932	2165.967913357018	258.7605305074831	1129.513926660565	2127.098556182046	272.9746885830709	1094.828680790132	2210.490709881433	623.5924466793035	1172.130318722468	2159.656433336774	601.3577976197059	1124.804516605555	2154.086595274686	717.2919501377817	1184.681632681222	2104.797741092818	695.3739737552928	1141.408867665206	
2254	15.02	2199.014879961502	981.4688858881933	886.767720207061	1697.858054366311	664.5906013652665	953.2997546819395	1700.580692299889	643.9044478905859	912.4460538899538	1736.332656443785	640.9015274690288	946.5443475478032	2162.944853828325	1085.516449357574	850.3202325802538	1636.132856760875	443.1461804430019	963.5785761372538	1620.64323126112	499.1680360804776	865.2027275330668	2025.584993050752	1065.758913207515	961.8634764154373	1817.610019116854	562.6158331316611	867.8020430377277	1829.595309865948	599.7004421404995	907.1306343895054	1895.870105072441	557.8895495113846	849.0445495086523	1908.26878978709	594.1919795770609	886.4275252278281	2145.665173533556	611.3365738202349	801.3179231461198	2089.952489668857	594.9728903184147	844.0242186262749	2117.093147943489	717.4551500716534	807.8832504716544	2065.390508939312	702.7416589199707	849.7912096114555	2181.930919116494	992.7032849064528	1165.849606475279	2214.978595100306	73.32473159310796	1092.055391881853	2021.949436195712	32.94628348636689	1032.53032625471	2036.474559291905	54.82383139666297	1076.626581469673	2036.280503824325	78.74587625770808	1034.183376491201	2129.906978571931	1068.35592814472	1201.875911642062	2250.049385995371	44.87583537538672	1056.108814218719	2182.779656361563	38.9175827038074	1156.38756943562	2019.355865478472	1065.710691934689	1060.170074604559	2123.050227824329	178.1403565502659	1108.444096496502	2088.620884319316	196.8653854041088	1074.740487922099	2143.902540650558	258.1474474306634	1129.36203783428	2105.261577503975	273.9982002412505	1095.011889546488	2201.457640364408	619.7629718726289	1172.429156591905	2150.107803539558	598.7654019886835	1125.047205770539	2147.068823515473	714.6756016557058	1185.237491688987	2097.33816860608	693.8739731982503	1141.925666373574	
